<?xml version="1.0"?>
<svg xmlns="http://www.w3.org/2000/svg" height="512px" viewBox="-16 0 384 384" width="512px"><g><path d="m176 352h16v-32h-16c-79.398438 0-144-64.601562-144-144s64.601562-144 144-144 144 64.601562 144 144c0 25.574219-6.785156 50.6875-19.625 72.617188l-8.078125 13.816406 27.613281 16.167968 8.089844-13.808593c15.695312-26.832031 24-57.535157 24-88.792969 0-97.046875-78.953125-176-176-176s-176 78.953125-176 176 78.953125 176 176 176zm0 0" data-original="#000000" class="active-path" fill="#000000"/><path d="m272 384v-185.886719l-64 32v-86.113281h-32v137.886719l64-32v134.113281zm0 0" data-original="#000000" class="active-path" fill="#000000"/></g> </svg>
