<svg width="97" height="97" viewBox="0 0 97 97" fill="none" xmlns="http://www.w3.org/2000/svg">
<g clip-path="url(#clip0)">
<path d="M29.0435 18.1875H38.7637V27.8511H29.0435V18.1875Z" fill="black"/>
<path d="M97 32.6487H71.7841V65.6812H87.2798V71.0809H71.7841V78.8126H97V32.6487ZM87.2798 57.9131H81.4436V40.4248H87.2798V57.9131Z" fill="black"/>
<path d="M29.0435 32.6445H38.7637V65.6852H29.0435V32.6445Z" fill="black"/>
<path d="M25.1392 18.1875H15.4755V32.6445H0V65.6852H25.1392V18.1875ZM15.4796 57.913H9.64342V40.4247H15.4796V57.913Z" fill="black"/>
<path d="M67.9 32.6487H42.6477V65.6812H58.2V71.0809H42.6477V78.8126H67.9V32.6487ZM58.1839 57.9131H52.3477V40.4248H58.1839V57.9131Z" fill="black"/>
</g>
<defs>
<clipPath id="clip0">
<rect width="97" height="97" fill="white"/>
</clipPath>
</defs>
</svg>
