<svg width="93" height="93" viewBox="0 0 93 93" fill="none" xmlns="http://www.w3.org/2000/svg">
<path d="M39.6684 35.7974C37.0295 35.7974 34.875 37.979 34.875 40.6605V40.7729H34.813V64.9374H34.875C34.9292 67.6034 37.0256 69.6997 39.6955 69.6997C42.3072 69.6997 44.4191 67.5801 44.4811 64.9374H44.5199V40.8426H44.4579V40.6682C44.4579 37.979 42.3072 35.7974 39.6684 35.7974Z" fill="black"/>
<path d="M87.6487 45.969L87.5867 45.938C84.6262 45.938 82.243 48.3172 82.243 51.2855C82.243 54.2421 84.6804 56.6214 87.6487 56.6214C90.5549 56.6214 93 54.2421 93 51.2971C93 48.3599 90.5549 45.969 87.6487 45.969Z" fill="black"/>
<path d="M56.1914 23.25C53.5603 23.25 51.4252 25.4277 51.4252 28.1015V28.2836H51.3206V64.8636H51.3826V64.9605C51.3826 67.611 53.5022 69.7539 56.1139 69.7539C58.6521 69.7539 60.7097 67.7582 60.8608 65.2318H60.9151V58.9L63.3602 56.6331L71.3156 67.2622C72.1332 68.7154 73.7064 69.7035 75.5006 69.7035C78.1782 69.7035 80.3211 67.549 80.3211 64.8249C80.3211 63.8406 80.0421 62.9261 79.5732 62.1705L79.6352 62.2751L79.6972 62.2131L70.8583 50.3634L77.1397 44.1518L77.0932 44.0936C77.9108 43.2217 78.4262 42.0631 78.4262 40.7224C78.4262 38.0525 76.2601 35.8438 73.5902 35.8438C72.1603 35.8438 70.8816 36.425 69.9942 37.4131L61.0391 46.1667L61.0003 28.3728H60.9383V28.1015C60.9383 25.4239 58.8032 23.25 56.1914 23.25Z" fill="black"/>
<path d="M0.05425 64.9489C0.05425 67.5916 2.18162 69.7422 4.80113 69.7422C7.32375 69.7422 9.393 67.7466 9.5325 65.2124H9.59062V58.9L12.0319 56.6331L19.9911 67.2623C20.8049 68.7154 22.3742 69.7035 24.18 69.7035C26.8499 69.7035 29.0005 67.549 29.0005 64.8249C29.0005 63.8755 28.7215 62.992 28.2836 62.2519L28.3224 62.2131L19.5223 50.3634L25.8269 44.1518L25.7649 44.0936C26.598 43.2218 27.1056 42.0011 27.1056 40.7224C27.1056 38.0525 24.9434 35.8438 22.2812 35.8438C19.0766 35.8438 18.7782 37.7658 9.7185 46.1629L9.67975 28.3572H9.61775V28.086C9.61775 25.4123 7.4865 23.25 4.87087 23.25C1.59262 23.25 -0.31775 26.6368 0.120125 28.2681H0V64.8481H0.05425V64.9489Z" fill="black"/>
</svg>
