<svg width="95" height="95" viewBox="0 0 95 95" fill="none" xmlns="http://www.w3.org/2000/svg">
<g clip-path="url(#clip0)">
<path d="M94.6731 51.1704C94.202 49.6093 93.2677 48.4316 91.6696 47.3805C90.3343 46.5026 88.487 45.7065 85.6918 44.8052C82.0285 43.6237 80.0664 42.5181 79.4416 41.282C79.1145 40.6358 79.1262 39.8903 79.4727 39.2012C80.006 38.1404 81.429 37.3871 83.4066 37.1106C84.8003 36.916 86.7254 36.9608 88.09 37.2158L88.3488 37.2644L88.3333 39.3297C88.3216 40.4645 88.3216 41.3969 88.3255 41.3969C88.3878 41.4008 93.0672 41.4845 93.0711 41.4825C93.0828 41.467 93.4059 33.2137 93.3942 33.1865C93.3689 33.1261 91.4341 32.7154 90.1143 32.4935C86.305 31.8511 83.4378 31.8258 80.8216 32.4156C78.8537 32.8594 77.1758 33.6322 75.8541 34.697C75.5271 34.9617 74.8731 35.6157 74.6181 35.9369C73.5086 37.3287 72.9519 38.9851 72.9519 40.8733C72.9519 42.5862 73.3412 44.0636 74.1081 45.2179C75.4317 47.217 77.7247 48.5737 82.2893 50.0433C84.2397 50.6721 84.814 50.8764 85.5069 51.1704C85.9391 51.3553 86.5288 51.6492 86.8403 51.838C87.8408 52.4395 88.3235 53.0157 88.4909 53.804C88.5552 54.1038 88.563 54.7987 88.4987 55.0206C88.2963 55.7389 87.7143 56.3462 86.7683 56.8211C86.0422 57.1793 85.2247 57.4129 84.1872 57.5433C83.9147 57.5764 83.685 57.5803 82.9103 57.5803C81.9059 57.5803 81.6022 57.5647 80.7165 57.446C78.6883 57.1695 76.4167 56.5603 74.3495 55.7389C74.1898 55.6707 74.0555 55.6182 74.0477 55.6182C74.0419 55.6182 73.9115 55.8595 73.7636 56.1496C73.1777 57.2825 72.2842 58.8085 71.5543 59.9025C71.344 60.21 71.3226 60.2451 71.3596 60.2743C71.4394 60.3443 72.6832 60.9478 73.0745 61.1152C75.7587 62.2578 78.6318 62.8787 81.754 62.9935C83.8602 63.0656 85.612 62.8982 87.3191 62.4563C91.4594 61.3818 94.1436 58.8942 94.821 55.4839C95.1072 54.0687 95.0449 52.4045 94.6731 51.1704Z" fill="black"/>
<path d="M71.8714 46.1639C70.9624 42.8081 68.7375 39.9136 65.7087 38.1423C63.9802 37.134 62.1388 36.55 60.1085 36.369C59.2871 36.295 57.6793 36.3301 57.5703 36.4255C57.5041 36.4858 56.9805 37.2839 56.778 37.644C56.6729 37.825 56.4822 38.1929 56.3498 38.4576C54.304 42.6485 54.6271 47.6608 57.1849 51.5558C58.3177 53.2882 59.7737 54.678 61.5568 55.7486C61.8507 55.9238 62.7597 56.3909 63.0244 56.5058L63.1471 56.5544L63.0906 56.5973C63.0595 56.6226 62.9076 56.7179 62.748 56.8094C61.8663 57.3369 61.037 57.6328 60.0287 57.7924C59.7484 57.8353 59.6141 57.843 59.0088 57.843C58.2535 57.843 58.1153 57.8314 57.5352 57.7165C55.7697 57.3642 54.1425 56.315 53.0057 54.8084C52.1083 53.6191 51.5575 52.2468 51.3609 50.7032C51.3025 50.2458 51.3025 49.0876 51.3609 48.634C51.5458 47.1917 52.0499 45.8622 52.85 44.739L53.0057 44.5191L53.0329 44.0383C53.1653 41.5137 53.903 38.5822 54.7673 37.1593C54.8198 37.0639 54.8705 36.9841 54.8627 36.9783C54.8549 36.9705 54.3274 37.1612 54.0004 37.2897C51.1253 38.4401 48.6513 40.6708 47.2089 43.4174C46.3311 45.0875 45.8522 46.7303 45.6809 48.673C45.64 49.1304 45.6478 50.2964 45.6946 50.8103C45.8561 52.5543 46.3116 54.1622 47.0902 55.7038C47.1895 55.9062 47.2712 56.0717 47.2712 56.0873C47.2712 56.1165 46.9637 56.4084 46.7087 56.6187C45.9495 57.2571 45.0055 57.7477 44.1081 57.9696C42.9227 58.2693 41.8949 58.2031 41.0424 57.7749C40.0496 57.2766 39.3314 56.3072 39.0589 55.0945C38.9265 54.497 38.9304 54.7851 38.9304 48.1202V42.0022H42.366H45.8016L45.7958 39.6294L45.7899 37.2586L42.3602 37.2508L38.9304 37.2469L38.9245 34.7008L38.9187 32.1548H35.8257H32.7346L32.7288 34.7008L32.7229 37.2469L30.4669 37.2508L28.2089 37.2586L28.2031 39.6294L28.1973 42.0022H30.463H32.7268V48.3946C32.7268 52.383 32.7346 54.933 32.7502 55.1763C32.83 56.5447 33.122 57.736 33.6242 58.7657C34.7629 61.0879 37.052 62.5556 40.0925 62.9001C42.3251 63.1551 44.4566 62.8086 46.3875 61.886C47.5788 61.3059 48.6844 60.4961 49.4942 59.6085L49.7628 59.3088L49.8173 59.3516C49.8543 59.3769 49.901 59.4178 49.9263 59.4489C49.9535 59.4762 50.0801 59.593 50.2124 59.7117C52.3847 61.6173 55.1216 62.7619 58.0141 62.9838C58.38 63.0149 59.5791 63.0188 59.9197 62.9858C61.6482 62.8553 63.2424 62.4251 64.7452 61.6991C68.3151 59.9764 70.9507 56.7802 71.922 52.9904C72.1984 51.91 72.3054 51.0906 72.3249 49.9226C72.3502 48.5348 72.214 47.4486 71.8714 46.1639ZM66.5068 51.3806C66.4659 51.5928 66.4016 51.8555 66.3744 51.9665C66.3471 52.0755 66.316 52.1631 66.3043 52.167C66.2907 52.1709 66.1564 52.1261 66.0046 52.0755C65.0702 51.7387 64.2975 51.2969 63.548 50.6565C63.2833 50.4365 62.75 49.8857 62.5339 49.6073C61.5217 48.3421 60.9417 46.9153 60.7275 45.2121C60.6867 44.8889 60.6867 43.6704 60.7275 43.3512C60.8073 42.7166 61.0098 41.7881 61.0682 41.7881C61.0857 41.7881 61.2025 41.8271 61.3368 41.8699C63.5072 42.6232 65.2337 44.3186 66.1077 46.5571C66.6839 48.0559 66.8299 49.7728 66.5068 51.3806Z" fill="black"/>
<path d="M30.8699 58.6699L29.6553 58.6602L24.9583 45.4238L20.2594 32.1836L13.8242 32.1875L7.389 32.1933V34.0776V35.9598L8.99098 35.9657C9.87081 35.9676 10.593 35.9793 10.593 35.991C10.593 36.0046 3.13585 57.0854 2.67257 58.3779L2.56941 58.6758H1.2847H0V60.5697V62.4656H5.39965H10.7993V60.5697V58.6758L9.53796 58.668L8.27856 58.6602L9.00656 56.6047L9.73456 54.5472L15.5722 54.5452L21.4117 54.5394L21.4604 54.6698C21.6687 55.2479 22.8658 58.6388 22.8658 58.6505C22.8658 58.666 22.3539 58.6758 21.6843 58.6758H20.5008L20.5066 60.5639L20.5124 62.4598H26.2917H32.0689L32.0748 60.5639L32.0806 58.6758L30.8699 58.6699ZM15.5644 49.8522C11.5993 49.8522 11.393 49.8483 11.4086 49.8113C11.4164 49.784 12.3448 47.1699 13.4699 43.9912C14.595 40.8125 15.5294 38.1828 15.543 38.1419L15.5702 38.0738L15.6189 38.212C15.6442 38.2879 16.5824 40.9332 17.7017 44.0866C18.8229 47.2438 19.7377 49.8327 19.7377 49.8385C19.7377 49.8444 17.8613 49.8522 15.5644 49.8522Z" fill="black"/>
</g>
<defs>
<clipPath id="clip0">
<rect width="95" height="95" fill="white"/>
</clipPath>
</defs>
</svg>
