<svg width="98" height="98" viewBox="0 0 98 98" fill="none" xmlns="http://www.w3.org/2000/svg">
<g clip-path="url(#clip0)">
<path d="M20.292 33.0099C17.408 31.9929 16.423 33.5069 15.818 34.9369L10.937 46.5109L6.28103 34.8959C5.51703 33.3279 4.23903 32.2299 1.84803 33.0309C-0.744972 33.8979 0.101028 36.5539 0.247028 37.0529L7.55003 53.7709L4.68303 60.0369C4.30203 60.8779 3.61403 63.2119 6.17203 64.2109C8.73303 65.2089 9.90703 63.7439 10.743 62.0329L21.887 37.0329C21.887 37.0329 23.271 34.0629 20.292 33.0099Z" fill="black"/>
<path d="M30.375 34.7568C24.746 34.7568 20.182 39.2328 20.182 44.7528C20.182 50.2738 24.094 54.7518 30.375 54.7518C37.132 54.7518 40.565 50.2738 40.565 44.7528C40.564 39.2328 36.001 34.7568 30.375 34.7568ZM30.375 50.2448C27.863 50.2448 25.829 47.8568 25.829 44.9158C25.829 41.9708 27.863 39.5858 30.375 39.5858C32.882 39.5858 34.918 41.9708 34.918 44.9158C34.917 47.8568 32.88 50.2448 30.375 50.2448Z" fill="black"/>
<path d="M56.6251 35.3179C54.8831 35.4319 53.9951 36.4529 53.8761 38.3409L53.8731 47.6179C53.7761 49.5949 52.4531 50.9499 50.2451 51.0059C46.9711 51.0879 46.5271 48.7509 46.5321 47.9179L46.5391 38.6089C46.4651 36.7489 45.6111 35.8139 43.9271 35.7409C42.1201 35.8719 41.1641 36.9119 41.0461 38.7969L41.0341 48.0459C41.0711 49.2049 40.8931 55.1759 50.2281 55.0449C55.4771 54.9769 59.1621 52.1769 59.4091 47.4469L59.4311 38.1379C59.3451 36.2709 58.4221 35.3569 56.6251 35.3179Z" fill="black"/>
<path d="M94.4171 35.464C92.6761 35.527 91.7271 36.531 91.6561 38.396V47.658C91.5541 49.616 90.0141 50.891 88.0011 50.891C85.8851 50.891 84.4411 49.614 84.3391 47.658L84.3231 38.396C84.2251 36.532 83.3651 35.52 81.6541 35.458C79.7601 35.458 78.8921 36.538 78.7941 38.403V47.67C78.9921 52.328 82.0471 54.776 87.9851 54.87C93.9591 54.776 96.9571 52.334 97.2141 47.657V38.395C97.1131 36.532 96.1651 35.528 94.4171 35.464Z" fill="black"/>
<path d="M72.1571 44.9019L77.0871 40.6079C77.0871 40.6079 79.5251 38.2899 77.3891 36.2569C75.8211 34.7599 73.8221 35.6189 73.1011 36.2809L65.9061 43.0799L65.8671 38.1569C65.8221 36.4989 64.8881 35.4439 62.9561 35.4439C60.9681 35.4439 60.1491 36.4389 60.0491 38.1529V52.2759C60.1511 53.9219 61.1431 54.7239 62.9641 54.7239C64.8651 54.7319 65.8161 53.8599 65.8931 52.2859L65.9001 47.0329C65.9001 47.0329 73.4901 53.4509 73.9041 53.8039C75.1271 54.8069 77.1321 54.6999 78.1301 53.7419C79.1851 52.7279 78.9371 50.6479 77.6651 49.5709L72.1571 44.9019Z" fill="black"/>
</g>
<defs>
<clipPath id="clip0">
<rect width="97.214" height="97.214" fill="white"/>
</clipPath>
</defs>
</svg>
